#!OML:ASF G:\JayActor3\Patient Classification 1\Patient 1\Session 6\male.ASF
:FULLY-SPECIFIED
:DEGREES
882
root -34.1066 16.5229 -1.25685 -544.341 -6.91402 181.72
lowerback 1.51519 -1.07763 4.80651
upperback 3.23832 -1.61024 0.839772
thorax 2.38317 -0.766393 -1.83767
lowerneck -7.61181 0.242159 1.28958
upperneck 10.7938 -0.412328 3.21865
head 4.48927 -0.0448538 0.747936
rclavicle -4.69629e-015 -4.37326e-015
rhumerus -35.8591 -3.45346 -85.9245
rradius 28.9713
rwrist 4.68862
rhand -17.6349 -10.6769
rfingers 7.12502
rthumb 8.62268 -40.4808
lclavicle -4.69629e-015 -4.37326e-015
lhumerus -27.4096 16.0985 79.2779
lradius 25.551
lwrist 14.76
lhand -15.5979 13.7076
lfingers 7.12502
lthumb 10.5881 43.4209
rfemur -12.1221 2.4852 33.4897
rtibia 31.0179
rfoot -14.9175 -17.5484
rtoes -3.69002
lfemur -10.2908 6.28673 -11.5973
ltibia 66.0987
lfoot -6.23862 5.46334
ltoes -22.2109
883
root -34.145 16.5152 -1.40137 -544.399 -6.42381 181.895
lowerback 1.56551 -0.967137 5.05465
upperback 3.23533 -1.46269 0.845328
thorax 2.35751 -0.688776 -1.96913
lowerneck -7.6691 0.248723 1.28514
upperneck 10.9493 -0.412606 3.20149
head 4.54654 -0.0453272 0.74364
rclavicle -2.31087e-015 1.66979e-014
rhumerus -35.6726 -2.95902 -86.3175
rradius 29.7553
rwrist 4.01856
rhand -17.7425 -10.6899
rfingers 7.12502
rthumb 8.51888 -40.4981
lclavicle -2.31087e-015 1.66979e-014
lhumerus -27.7438 16.5467 79.2476
lradius 24.7999
lwrist 13.9923
lhand -15.2872 13.7559
lfingers 7.12502
lthumb 10.8878 43.4536
rfemur -11.4957 2.55399 33.6937
rtibia 31.1205
rfoot -15.2943 -17.3335
rtoes -4.04905
lfemur -11.5483 5.46946 -11.748
ltibia 65.7992
lfoot -7.73157 6.11192
ltoes -20.9172
884
root -34.1841 16.5048 -1.54698 -544.463 -5.95533 182.113
lowerback 1.59981 -0.865195 5.36846
upperback 3.23964 -1.32875 0.855475
thorax 2.3479 -0.616461 -2.13314
lowerneck -7.71745 0.254357 1.27443
upperneck 11.0733 -0.41176 3.19054
head 4.59271 -0.0453173 0.742295
rclavicle 2.045e-014 -2.74323e-014
rhumerus -35.4916 -2.43161 -86.7233
rradius 30.5598
rwrist 3.33086
rhand -17.8347 -10.7287
rfingers 7.12502
rthumb 8.42984 -40.5405
lclavicle 2.045e-014 -2.74323e-014
lhumerus -28.0946 17.0502 79.1752
lradius 24.0967
lwrist 13.2112
lhand -14.8328 13.7834
lfingers 7.12502
lthumb 11.326 43.4576
rfemur -10.8677 2.54125 33.9251
rtibia 31.2274
rfoot -15.6842 -17.0457
rtoes -4.30675
lfemur -12.7538 4.63336 -11.8411
ltibia 65.3552
lfoot -9.15292 6.76254
ltoes -19.706
885
root -34.2238 16.4914 -1.69374 -544.526 -5.50609 182.361
lowerback 1.60916 -0.768465 5.72548
upperback 3.2532 -1.20473 0.869996
thorax 2.3623 -0.547752 -2.31741
lowerneck -7.75517 0.260759 1.2616
upperneck 11.1595 -0.40634 3.17814
head 4.62544 -0.0433114 0.741079
rclavicle 1.03244e-014 1.51076e-014
rhumerus -35.308 -1.87699 -87.1343
rradius 31.3732
rwrist 2.6459
rhand -17.9229 -10.7906
rfingers 7.12502
rthumb 8.34476 -40.6057
lclavicle 1.03244e-014 1.51076e-014
lhumerus -28.4566 17.5636 79.0776
lradius 23.4485
lwrist 12.47
lhand -14.4162 13.8034
lfingers 7.12502
lthumb 11.7277 43.4551
rfemur -10.2518 2.47513 34.1707
rtibia 31.3551
rfoot -16.1244 -16.7203
rtoes -4.46807
lfemur -13.9182 3.82075 -11.8839
ltibia 64.7776
lfoot -10.473 7.41857
ltoes -18.7033
886
root -34.2629 16.4751 -1.84089 -544.573 -5.07891 182.619
lowerback 1.58752 -0.679947 6.09336
upperback 3.27629 -1.09505 0.886419
thorax 2.4044 -0.485162 -2.50636
lowerneck -7.7895 0.268829 1.24591
upperneck 11.2061 -0.395331 3.1677
head 4.64535 -0.0384857 0.741243
rclavicle 3.85145e-015 4.77083e-015
rhumerus -35.1059 -1.29322 -87.5507
rradius 32.1813
rwrist 1.98335
rhand -18.0182 -10.8608
rfingers 7.12502
rthumb 8.25278 -40.6796
lclavicle 3.85145e-015 4.77083e-015
lhumerus -28.8252 18.0374 78.9698
lradius 22.8758
lwrist 11.8273
lhand -14.0462 13.8447
lfingers 7.12502
lthumb 12.0846 43.4757
rfemur -9.67258 2.35714 34.4115
rtibia 31.5165
rfoot -16.6265 -16.3355
rtoes -4.48798
lfemur -15.0676 3.05783 -11.8959
ltibia 64.0767
lfoot -11.6587 8.12053
ltoes -18.0796
887
root -34.3005 16.456 -1.98792 -544.596 -4.67563 182.867
lowerback 1.5391 -0.594108 6.43882
upperback 3.30265 -0.991269 0.901375
thorax 2.46615 -0.425073 -2.68456
lowerneck -7.81718 0.27004 1.24133
upperneck 11.2129 -0.390943 3.14993
head 4.652 -0.036883 0.736869
rclavicle 1.39274e-014 -6.75868e-015
rhumerus -34.8881 -0.699579 -87.9653
rradius 32.9815
rwrist 1.35127
rhand -18.1152 -10.9531
rfingers 7.12502
rthumb 8.15918 -40.7756
lclavicle 1.39274e-014 -6.75868e-015
lhumerus -29.1998 18.3989 78.8737
lradius 22.3888
lwrist 11.3543
lhand -13.7576 13.9036
lfingers 7.12502
lthumb 12.3629 43.5181
rfemur -9.14207 2.2423 34.6385
rtibia 31.7176
rfoot -17.1712 -15.9564
rtoes -4.45544
lfemur -16.2167 2.38084 -11.8879
ltibia 63.259
lfoot -12.6804 8.86386
ltoes -17.8529
888
root -34.3359 16.435 -2.13456 -544.592 -4.29529 183.095
lowerback 1.47261 -0.518104 6.7394
upperback 3.32871 -0.902075 0.91694
thorax 2.53798 -0.372608 -2.83711
lowerneck -7.85266 0.27177 1.18996
upperneck 11.2 -0.383618 3.17309
head 4.65392 -0.0332055 0.752937
rclavicle 1.47846e-015 -9.93923e-015
rhumerus -34.6528 -0.0919241 -88.3672
rradius 33.7569
rwrist 0.79571
rhand -18.1807 -10.9965
rfingers 7.12502
rthumb 8.09595 -40.8214
lclavicle 1.47846e-015 -9.93923e-015
lhumerus -29.5831 18.6992 78.7814
lradius 21.9698
lwrist 11.0052
lhand -13.474 13.9489
lfingers 7.12502
lthumb 12.6362 43.5467
rfemur -8.65471 2.16973 34.8478
rtibia 31.9495
rfoot -17.7177 -15.6306
rtoes -4.50519
lfemur -17.363 1.78642 -11.862
ltibia 62.3275
lfoot -13.6085 9.5546
ltoes -17.6356
889
root -34.3687 16.4128 -2.28071 -544.567 -3.9362 183.292
lowerback 1.40611 -0.446348 6.98333
upperback 3.34851 -0.817498 0.928106
thorax 2.60396 -0.323448 -2.9623
lowerneck -7.8847 0.266227 1.12435
upperneck 11.1675 -0.385848 3.21809
head 4.64939 -0.0336671 0.777422
rclavicle -4.27387e-015 -1.09332e-014
rhumerus -34.4112 0.51286 -88.7559
rradius 34.5082
rwrist 0.306771
rhand -18.2258 -11.0226
rfingers 7.12502
rthumb 8.05242 -40.8492
lclavicle -4.27387e-015 -1.09332e-014
lhumerus -29.9785 18.8879 78.6974
lradius 21.6201
lwrist 10.8112
lhand -13.2102 13.9847
lfingers 7.12502
lthumb 12.8905 43.5666
rfemur -8.19277 2.14219 35.0334
rtibia 32.19
rfoot -18.2682 -15.3549
rtoes -4.59508
lfemur -18.4937 1.28849 -11.8322
ltibia 61.275
lfoot -14.4407 10.1761
ltoes -17.4319
890
root -34.3991 16.3905 -2.42663 -544.531 -3.59373 183.459
lowerback 1.35603 -0.380166 7.17264
upperback 3.35925 -0.737632 0.936375
thorax 2.65155 -0.27823 -3.05956
lowerneck -7.91489 0.256454 1.03223
upperneck 11.1256 -0.393173 3.28944
head 4.64179 -0.0362732 0.814015
rclavicle -1.0138e-014 -3.02153e-014
rhumerus -34.1752 1.12772 -89.1311
rradius 35.2413
rwrist -0.122465
rhand -18.2509 -11.0426
rfingers 7.12502
rthumb 8.0282 -40.8701
lclavicle -1.0138e-014 -3.02153e-014
lhumerus -30.3893 19.0372 78.6119
lradius 21.3168
lwrist 10.6799
lhand -12.9427 13.9872
lfingers 7.12502
lthumb 13.1484 43.5527
rfemur -7.71536 2.28425 35.2175
rtibia 32.3996
rfoot -18.7661 -15.2789
rtoes -4.92765
lfemur -19.5892 0.895996 -11.8197
ltibia 60.0868
lfoot -15.0988 10.8151
ltoes -17.5754
891
root -34.4275 16.3699 -2.5729 -544.494 -3.26795 183.594
lowerback 1.32771 -0.323128 7.31641
upperback 3.35999 -0.666494 0.94081
thorax 2.67596 -0.239018 -3.135
lowerneck -7.9352 0.249237 0.921002
upperneck 11.0773 -0.396001 3.37573
head 4.63052 -0.0367732 0.858579
rclavicle 3.68994e-015 -1.25234e-014
rhumerus -33.9488 1.74262 -89.4872
rradius 35.9458
rwrist -0.475887
rhand -18.2584 -11.0371
rfingers 7.12502
rthumb 8.02093 -40.8649
lclavicle 3.68994e-015 -1.25234e-014
lhumerus -30.8232 19.1632 78.5204
lradius 21.0552
lwrist 10.5965
lhand -12.7543 13.9691
lfingers 7.12502
lthumb 13.33 43.5228
rfemur -7.18969 2.57969 35.399
rtibia 32.5369
rfoot -19.2586 -15.3751
rtoes -5.29576
lfemur -20.6176 0.595576 -11.8372
ltibia 58.7423
lfoot -15.6082 11.4567
ltoes -17.9491
892
root -34.4542 16.353 -2.72017 -544.462 -2.95576 183.705
lowerback 1.32014 -0.271391 7.42815
upperback 3.35412 -0.599352 0.940548
thorax 2.68159 -0.203046 -3.19718
lowerneck -7.94404 0.242899 0.819421
upperneck 11.0279 -0.397601 3.45272
head 4.61696 -0.0370288 0.898742
rclavicle -9.50439e-015 -1.33186e-014
rhumerus -33.7375 2.35443 -89.8256
rradius 36.6262
rwrist -0.772737
rhand -18.2516 -11.0116
rfingers 7.12502
rthumb 8.02753 -40.8392
lclavicle -9.50439e-015 -1.33186e-014
lhumerus -31.277 19.3023 78.4054
lradius 20.8206
lwrist 10.4987
lhand -12.6309 13.9362
lfingers 7.12502
lthumb 13.449 43.482
rfemur -6.58792 2.97469 35.5784
rtibia 32.5672
rfoot -19.7184 -15.447
rtoes -5.29072
lfemur -21.5472 0.402643 -11.8844
ltibia 57.2228
lfoot -15.9555 12.085
ltoes -18.6139
893
root -34.4798 16.3406 -2.8689 -544.439 -2.65428 183.802
lowerback 1.32322 -0.222026 7.53191
upperback 3.34591 -0.533773 0.934847
thorax 2.67878 -0.168188 -3.26043
lowerneck -7.9395 0.238811 0.745837
upperneck 10.9745 -0.395298 3.49852
head 4.59983 -0.0361733 0.924923
rclavicle -6.08778e-016 -1.2921e-014
rhumerus -33.5274 2.88849 -90.1288
rradius 37.2688
rwrist -0.963764
rhand -18.2305 -10.9688
rfingers 7.12502
rthumb 8.04783 -40.7956
lclavicle -6.08778e-016 -1.2921e-014
lhumerus -31.7412 19.424 78.2779
lradius 20.6088
lwrist 10.4084
lhand -12.6553 13.8931
lfingers 7.12502
lthumb 13.4255 43.4405
rfemur -5.90059 3.41794 35.7567
rtibia 32.4738
rfoot -20.141 -15.4907
rtoes -5.03193
lfemur -22.3601 0.319266 -11.9554
ltibia 55.5236
lfoot -16.2091 12.6403
ltoes -19.2733
894
root -34.5049 16.3319 -3.01891 -544.422 -2.38084 183.893
lowerback 1.31433 -0.182885 7.64729
upperback 3.34388 -0.482898 0.917888
thorax 2.68772 -0.13956 -3.34206
lowerneck -7.92951 0.242812 0.702586
upperneck 10.9175 -0.382584 3.52014
head 4.58046 -0.0304146 0.939325
rclavicle 1.22998e-015 -8.34896e-015
rhumerus -33.3213 3.43551 -90.4348
rradius 37.8913
rwrist -1.14324
rhand -18.2266 -10.9309
rfingers 7.12502
rthumb 8.05163 -40.7575
lclavicle 1.22998e-015 -8.34896e-015
lhumerus -32.1986 19.5551 78.1186
lradius 20.4131
lwrist 10.3157
lhand -12.8867 13.8861
lfingers 7.12502
lthumb 13.2024 43.4481
rfemur -5.1429 3.79281 35.919
rtibia 32.2585
rfoot -20.5078 -15.4038
rtoes -4.51156
lfemur -23.0619 0.320004 -12.0501
ltibia 53.6557
lfoot -16.4055 13.1202
ltoes -19.8863
895
root -34.5293 16.3255 -3.16983 -544.403 -2.12807 183.985
lowerback 1.28685 -0.147225 7.78204
upperback 3.34725 -0.438341 0.889886
thorax 2.71231 -0.112596 -3.44615
lowerneck -7.90564 0.243922 0.724082
upperneck 10.8397 -0.374072 3.4905
head 4.55237 -0.0272336 0.927021
rclavicle -1.39149e-015 -1.82882e-014
rhumerus -33.0936 3.87155 -90.715
rradius 38.4647
rwrist -1.22336
rhand -18.2143 -10.8919
rfingers 7.12502
rthumb 8.06354 -40.7181
lclavicle -1.39149e-015 -1.82882e-014
lhumerus -32.6425 19.747 77.9048
lradius 20.2155
lwrist 10.1664
lhand -13.1673 13.8702
lfingers 7.12502
lthumb 12.9319 43.4495
rfemur -4.33817 4.05771 36.0601
rtibia 31.9394
rfoot -20.8162 -15.1702
rtoes -3.81553
lfemur -23.6656 0.399218 -12.161
ltibia 51.6435
lfoot -16.6067 13.4905
ltoes -20.2433
